solid ascii
  facet normal 0.000000e+000 0.000000e+000 -1.000000e+000
    outer loop
      vertex   -2.500000e+001 2.500000e+001 0.000000e+000
      vertex   -6.830127e+001 5.000000e+001 0.000000e+000
      vertex   -2.500000e+001 7.500000e+001 0.000000e+000
    endloop
  endfacet
  facet normal -4.714045e-001 -8.164966e-001 3.333333e-001
    outer loop
      vertex   -6.830127e+001 5.000000e+001 0.000000e+000
      vertex   -2.500000e+001 2.500000e+001 0.000000e+000
      vertex   -3.943376e+001 5.000000e+001 4.082483e+001
    endloop
  endfacet
  facet normal 9.428090e-001 -0.000000e+000 3.333333e-001
    outer loop
      vertex   -2.500000e+001 2.500000e+001 0.000000e+000
      vertex   -2.500000e+001 7.500000e+001 0.000000e+000
      vertex   -3.943376e+001 5.000000e+001 4.082483e+001
    endloop
  endfacet
  facet normal -4.714045e-001 8.164966e-001 3.333333e-001
    outer loop
      vertex   -2.500000e+001 7.500000e+001 0.000000e+000
      vertex   -6.830127e+001 5.000000e+001 0.000000e+000
      vertex   -3.943376e+001 5.000000e+001 4.082483e+001
    endloop
  endfacet
endsolid
